<svg viewBox="0 0 900 518" xmlns="http://www.w3.org/2000/svg">
<title>Packrift pack-count distribution</title>
<rect width="900" height="518" fill="#ffffff"/>
<text x="18" y="26" font-family="system-ui, sans-serif" font-size="18" font-weight="700" fill="#18231f">Packrift pack-count distribution</text>
<text x="18" y="62" font-family="system-ui, sans-serif" font-size="13" fill="#53615b">25 unit pack</text>
<rect x="270" y="46" width="520" height="20" rx="4" fill="#245f46"/>
<text x="800" y="61" font-family="system-ui, sans-serif" font-size="13" fill="#18231f">459</text>
<text x="18" y="96" font-family="system-ui, sans-serif" font-size="13" fill="#53615b">50 unit pack</text>
<rect x="270" y="80" width="322" height="20" rx="4" fill="#285e73"/>
<text x="602" y="95" font-family="system-ui, sans-serif" font-size="13" fill="#18231f">284</text>
<text x="18" y="130" font-family="system-ui, sans-serif" font-size="13" fill="#53615b">10 unit pack</text>
<rect x="270" y="114" width="187" height="20" rx="4" fill="#8a5b24"/>
<text x="467" y="129" font-family="system-ui, sans-serif" font-size="13" fill="#18231f">165</text>
<text x="18" y="164" font-family="system-ui, sans-serif" font-size="13" fill="#53615b">15 unit pack</text>
<rect x="270" y="148" width="161" height="20" rx="4" fill="#8a4054"/>
<text x="441" y="163" font-family="system-ui, sans-serif" font-size="13" fill="#18231f">142</text>
<text x="18" y="198" font-family="system-ui, sans-serif" font-size="13" fill="#53615b">20 unit pack</text>
<rect x="270" y="182" width="159" height="20" rx="4" fill="#245f46"/>
<text x="439" y="197" font-family="system-ui, sans-serif" font-size="13" fill="#18231f">140</text>
<text x="18" y="232" font-family="system-ui, sans-serif" font-size="13" fill="#53615b">100 unit pack</text>
<rect x="270" y="216" width="71" height="20" rx="4" fill="#285e73"/>
<text x="351" y="231" font-family="system-ui, sans-serif" font-size="13" fill="#18231f">63</text>
<text x="18" y="266" font-family="system-ui, sans-serif" font-size="13" fill="#53615b">1,000 unit pack</text>
<rect x="270" y="250" width="70" height="20" rx="4" fill="#8a5b24"/>
<text x="350" y="265" font-family="system-ui, sans-serif" font-size="13" fill="#18231f">62</text>
<text x="18" y="300" font-family="system-ui, sans-serif" font-size="13" fill="#53615b">250 unit pack</text>
<rect x="270" y="284" width="54" height="20" rx="4" fill="#8a4054"/>
<text x="334" y="299" font-family="system-ui, sans-serif" font-size="13" fill="#18231f">48</text>
<text x="18" y="334" font-family="system-ui, sans-serif" font-size="13" fill="#53615b">12 unit pack</text>
<rect x="270" y="318" width="52" height="20" rx="4" fill="#245f46"/>
<text x="332" y="333" font-family="system-ui, sans-serif" font-size="13" fill="#18231f">46</text>
<text x="18" y="368" font-family="system-ui, sans-serif" font-size="13" fill="#53615b">5 unit pack</text>
<rect x="270" y="352" width="45" height="20" rx="4" fill="#285e73"/>
<text x="325" y="367" font-family="system-ui, sans-serif" font-size="13" fill="#18231f">40</text>
<text x="18" y="402" font-family="system-ui, sans-serif" font-size="13" fill="#53615b">6 unit pack</text>
<rect x="270" y="386" width="41" height="20" rx="4" fill="#8a5b24"/>
<text x="321" y="401" font-family="system-ui, sans-serif" font-size="13" fill="#18231f">36</text>
<text x="18" y="436" font-family="system-ui, sans-serif" font-size="13" fill="#53615b">200 unit pack</text>
<rect x="270" y="420" width="37" height="20" rx="4" fill="#8a4054"/>
<text x="317" y="435" font-family="system-ui, sans-serif" font-size="13" fill="#18231f">33</text>
<text x="18" y="470" font-family="system-ui, sans-serif" font-size="13" fill="#53615b">500 unit pack</text>
<rect x="270" y="454" width="34" height="20" rx="4" fill="#245f46"/>
<text x="314" y="469" font-family="system-ui, sans-serif" font-size="13" fill="#18231f">30</text>
<text x="18" y="504" font-family="system-ui, sans-serif" font-size="13" fill="#53615b">24 unit pack</text>
<rect x="270" y="488" width="28" height="20" rx="4" fill="#285e73"/>
<text x="308" y="503" font-family="system-ui, sans-serif" font-size="13" fill="#18231f">25</text>
</svg>
