<svg viewBox="0 0 900 280" xmlns="http://www.w3.org/2000/svg">
<title>Packrift public unit-price bands</title>
<rect width="900" height="280" fill="#ffffff"/>
<text x="18" y="26" font-family="system-ui, sans-serif" font-size="18" font-weight="700" fill="#18231f">Packrift public unit-price bands</text>
<text x="18" y="62" font-family="system-ui, sans-serif" font-size="13" fill="#53615b">$1 to $5 per unit</text>
<rect x="270" y="46" width="520" height="20" rx="4" fill="#245f46"/>
<text x="800" y="61" font-family="system-ui, sans-serif" font-size="13" fill="#18231f">909</text>
<text x="18" y="96" font-family="system-ui, sans-serif" font-size="13" fill="#53615b">$5+ per unit</text>
<rect x="270" y="80" width="179" height="20" rx="4" fill="#285e73"/>
<text x="459" y="95" font-family="system-ui, sans-serif" font-size="13" fill="#18231f">313</text>
<text x="18" y="130" font-family="system-ui, sans-serif" font-size="13" fill="#53615b">$0.50 to $1 per unit</text>
<rect x="270" y="114" width="165" height="20" rx="4" fill="#8a5b24"/>
<text x="445" y="129" font-family="system-ui, sans-serif" font-size="13" fill="#18231f">288</text>
<text x="18" y="164" font-family="system-ui, sans-serif" font-size="13" fill="#53615b">$0.25 to $0.50 per unit</text>
<rect x="270" y="148" width="54" height="20" rx="4" fill="#8a4054"/>
<text x="334" y="163" font-family="system-ui, sans-serif" font-size="13" fill="#18231f">95</text>
<text x="18" y="198" font-family="system-ui, sans-serif" font-size="13" fill="#53615b">$0.10 to $0.25 per unit</text>
<rect x="270" y="182" width="33" height="20" rx="4" fill="#245f46"/>
<text x="313" y="197" font-family="system-ui, sans-serif" font-size="13" fill="#18231f">58</text>
<text x="18" y="232" font-family="system-ui, sans-serif" font-size="13" fill="#53615b">under $0.05 per unit</text>
<rect x="270" y="216" width="20" height="20" rx="4" fill="#285e73"/>
<text x="300" y="231" font-family="system-ui, sans-serif" font-size="13" fill="#18231f">35</text>
<text x="18" y="266" font-family="system-ui, sans-serif" font-size="13" fill="#53615b">$0.05 to $0.10 per unit</text>
<rect x="270" y="250" width="17" height="20" rx="4" fill="#8a5b24"/>
<text x="297" y="265" font-family="system-ui, sans-serif" font-size="13" fill="#18231f">29</text>
</svg>
